<svg width="16" height="16" viewBox="0 0 16 16" fill="none" xmlns="http://www.w3.org/2000/svg">
<path d="M10.5 1C12.9688 1 15 3.03125 15 5.5C15 8 12.9688 10 10.5 10C9.90625 10 9.3125 9.90625 8.8125 9.6875L7.5 11H6V13H4V15H1V12.5L6.3125 7.1875C6.09375 6.6875 6 6.09375 6 5.5C6 3.03125 8 1 10.5 1ZM10.5 0C7.4375 0 5 2.46875 5 5.5C5 6 5.03125 6.46875 5.15625 6.90625L0.21875 11.875C0.0625 12.0312 0 12.2188 0 12.4062V15.25C0 15.6875 0.3125 16 0.75 16H4.25C4.65625 16 5 15.6875 5 15.25V14H6.25C6.65625 14 7 13.6875 7 13.25V12H7.59375C7.78125 12 7.96875 11.9375 8.125 11.7812L9.09375 10.8438C9.53125 10.9688 10 11 10.5 11C13.5312 11 16 8.5625 16 5.5C16 2.46875 13.5312 0 10.5 0ZM12 3.375C12.3438 3.375 12.625 3.65625 12.625 4C12.625 4.375 12.3438 4.625 12 4.625C11.625 4.625 11.375 4.375 11.375 4C11.375 3.65625 11.625 3.375 12 3.375ZM12 2.5C11.1562 2.5 10.5 3.1875 10.5 4C10.5 4.84375 11.1562 5.5 12 5.5C12.8125 5.5 13.5 4.84375 13.5 4C13.5 3.1875 12.8125 2.5 12 2.5Z" fill="#091E42"/>
</svg>
